<?xml version="1.0" encoding="UTF-8" standalone="no"?>
<!DOCTYPE svg PUBLIC "-//W3C//DTD SVG 1.1//EN" "http://www.w3.org/Graphics/SVG/1.1/DTD/svg11.dtd">
<svg width="100%" height="100%" viewBox="0 0 95 70" version="1.1" xmlns="http://www.w3.org/2000/svg" xmlns:xlink="http://www.w3.org/1999/xlink" xml:space="preserve" xmlns:serif="http://www.serif.com/" style="fill-rule:evenodd;clip-rule:evenodd;stroke-linejoin:round;stroke-miterlimit:2;">
    <g transform="matrix(1,0,0,1,-15,-1.12577)">
        <g transform="matrix(0.441995,0,0,0.456684,-12.6736,-22.1284)">
            <rect x="168.379" y="50.92" width="2.34" height="153.279" style="fill:rgb(2,119,114);"/>
        </g>
        <g transform="matrix(0.441995,0,0,0.456684,-12.6736,-22.1284)">
            <path d="M186.999,115.869L186.999,126.419L199.559,126.419L199.559,129.149L186.999,129.149L186.999,141.789L183.939,141.789L183.939,113.129L201.729,113.129L201.729,115.869L186.999,115.869Z" style="fill:rgb(2,119,114);fill-rule:nonzero;"/>
        </g>
        <g transform="matrix(0.441995,0,0,0.456684,-12.6736,-22.1284)">
            <path d="M208.888,141.789L208.888,113.129L211.998,113.129L211.998,139.059L226.598,139.059L226.598,141.789L208.888,141.789Z" style="fill:rgb(2,119,114);fill-rule:nonzero;"/>
        </g>
        <g transform="matrix(0.441995,0,0,0.456684,-12.6736,-22.1284)">
            <path d="M233.568,141.789L233.568,113.129L251.358,113.129L251.358,115.869L236.618,115.869L236.618,125.999L249.178,125.999L249.178,128.739L236.618,128.739L236.618,139.089L251.358,139.089L251.358,141.819L233.568,141.789Z" style="fill:rgb(2,119,114);fill-rule:nonzero;"/>
        </g>
        <g transform="matrix(0.441995,0,0,0.456684,-12.6736,-22.1284)">
            <path d="M273.208,141.789L266.208,129.789L259.208,141.789L255.738,141.789L264.518,127.099L256.308,113.099L259.848,113.099L266.208,124.419L272.568,113.099L276.108,113.099L267.858,127.099L276.708,141.789L273.208,141.789Z" style="fill:rgb(2,119,114);fill-rule:nonzero;"/>
        </g>
        <g transform="matrix(0.441995,0,0,0.456684,-12.6736,-22.1284)">
            <path d="M64.44,143.629L73.059,144.679C73.105,145.474 73.465,146.219 74.059,146.749C75.08,147.359 76.264,147.638 77.449,147.549C78.979,147.648 80.507,147.341 81.879,146.659C82.581,146.215 83.11,145.544 83.379,144.759C83.676,143.628 83.794,142.457 83.729,141.289L83.729,137.129C81.847,140.009 78.63,141.75 75.189,141.749C71.519,141.831 68.062,139.985 66.09,136.889C64.253,134.048 63.335,130.71 63.46,127.329C63.46,122.549 64.61,118.882 66.91,116.329C69.072,113.867 72.213,112.48 75.489,112.539C78.991,112.53 82.273,114.278 84.219,117.189L84.219,113.189L91.279,113.189L91.279,138.779C91.378,141.323 91.098,143.867 90.449,146.329C90.001,147.807 89.197,149.153 88.109,150.249C86.959,151.282 85.592,152.044 84.109,152.479C82.042,153.067 79.898,153.337 77.749,153.279C72.923,153.279 69.496,152.452 67.47,150.799C65.534,149.29 64.421,146.953 64.47,144.499C64.41,144.289 64.42,143.999 64.44,143.629ZM71.179,126.899C71.179,129.919 71.766,132.136 72.939,133.549C73.98,134.885 75.586,135.662 77.279,135.649C79.098,135.682 80.836,134.887 81.999,133.489C83.266,132.049 83.903,129.916 83.909,127.089C83.909,124.129 83.299,121.936 82.079,120.509C80.952,119.121 79.247,118.328 77.459,118.359C75.722,118.324 74.066,119.105 72.989,120.469C71.769,121.869 71.179,123.999 71.179,126.899Z" style="fill:rgb(171,171,171);fill-rule:nonzero;"/>
        </g>
        <g transform="matrix(0.441995,0,0,0.456684,-12.6736,-22.1284)">
            <path d="M114.319,132.669L121.839,133.939C121.028,136.473 119.421,138.679 117.259,140.229C114.934,141.737 112.199,142.491 109.429,142.389C104.469,142.389 100.803,140.769 98.429,137.529C96.46,134.64 95.471,131.193 95.609,127.699C95.609,122.979 96.843,119.279 99.309,116.599C101.701,113.963 105.131,112.501 108.689,112.599C112.483,112.431 116.158,113.978 118.689,116.809C121.142,119.609 122.316,123.902 122.209,129.689L103.329,129.689C103.267,131.596 103.92,133.459 105.159,134.909C106.271,136.128 107.859,136.807 109.509,136.769C110.595,136.796 111.657,136.442 112.509,135.769C113.415,134.945 114.046,133.863 114.319,132.669ZM114.749,125.049C114.827,123.229 114.22,121.444 113.049,120.049C112.021,118.965 110.59,118.35 109.095,118.35C107.554,118.35 106.082,119.004 105.049,120.149C103.922,121.519 103.357,123.268 103.469,125.039L114.749,125.049Z" style="fill:rgb(171,171,171);fill-rule:nonzero;"/>
        </g>
        <g transform="matrix(0.441995,0,0,0.456684,-12.6736,-22.1284)">
            <path d="M125.589,127.089C125.593,124.547 126.229,122.045 127.439,119.809C128.602,117.527 130.434,115.654 132.689,114.439C135.019,113.182 137.632,112.541 140.279,112.579C144.243,112.443 148.088,113.971 150.879,116.789C153.642,119.618 155.132,123.457 154.999,127.409C155.124,131.404 153.613,135.281 150.819,138.139C148.067,140.964 144.251,142.508 140.309,142.389C137.712,142.393 135.149,141.786 132.829,140.619C130.523,139.504 128.629,137.686 127.419,135.429C126.122,132.846 125.493,129.978 125.589,127.089ZM133.319,127.489C133.319,130.319 133.989,132.489 135.319,133.989C136.572,135.419 138.383,136.241 140.284,136.241C142.185,136.241 143.996,135.419 145.249,133.989C146.582,132.476 147.249,130.292 147.249,127.439C147.402,125.116 146.689,122.818 145.249,120.989C144,119.553 142.187,118.727 140.284,118.727C138.381,118.727 136.568,119.553 135.319,120.989C133.986,122.489 133.319,124.656 133.319,127.489Z" style="fill:rgb(171,171,171);fill-rule:nonzero;"/>
        </g>
    </g>
</svg>
